<?xml version="1.0" standalone="no"?>
<!DOCTYPE svg PUBLIC "-//W3C//DTD SVG 20010904//EN"
 "http://www.w3.org/TR/2001/REC-SVG-20010904/DTD/svg10.dtd">
<svg version="1.0" xmlns="http://www.w3.org/2000/svg"
 width="601.000000pt" height="601.000000pt" viewBox="0 0 601.000000 601.000000"
 preserveAspectRatio="xMidYMid meet">

<g transform="translate(0.000000,601.000000) scale(0.100000,-0.100000)"
fill="#000000" stroke="none">
<path d="M1728 5197 l-1268 -732 0 -1470 0 -1470 1272 -734 c1087 -627 1274
-733 1294 -725 13 5 588 335 1278 734 l1256 725 0 1470 0 1470 -1265 730
c-696 402 -1273 731 -1282 732 -10 2 -588 -327 -1285 -730z m2406 -188 c611
-353 1128 -652 1149 -665 l37 -24 0 -1325 0 -1325 -37 -24 c-76 -49 -2249
-1299 -2265 -1304 -11 -2 -470 257 -1168 659 l-1150 664 0 1330 0 1330 1148
662 c631 365 1153 663 1161 663 7 0 513 -288 1125 -641z"/>
<path d="M2307 4803 c-50 -31 -70 -38 -125 -41 -75 -5 -92 -14 -92 -48 0 -13
-14 -39 -30 -58 -22 -24 -30 -43 -28 -65 1 -20 -5 -38 -22 -56 l-23 -25 23
-25 23 -24 -32 -37 c-29 -32 -31 -40 -26 -78 5 -34 2 -53 -15 -86 -17 -33 -20
-52 -15 -85 4 -33 2 -44 -9 -48 -37 -15 -96 130 -96 236 0 35 10 95 22 136
l22 74 -41 36 c-85 76 -121 95 -179 95 -36 1 -58 -4 -69 -15 -15 -15 -14 -18
14 -38 33 -24 38 -40 20 -58 -9 -9 -24 -7 -62 8 -27 11 -57 18 -66 16 -13 -4
-13 -5 2 -6 9 0 17 -8 17 -16 0 -8 5 -15 10 -15 6 0 10 4 10 9 0 6 16 3 35 -5
46 -19 52 -18 72 12 17 27 17 27 -17 55 -20 17 -28 29 -20 30 8 0 35 1 60 3
73 5 80 -3 82 -92 l2 -77 5 74 c6 73 6 73 25 52 18 -20 18 -22 3 -39 -27 -29
-20 -38 8 -12 l26 24 24 -25 c23 -22 24 -28 14 -57 -9 -27 -15 -32 -33 -27
-16 5 -18 4 -6 -4 12 -8 15 -35 15 -128 0 -112 2 -121 32 -186 34 -71 53 -88
79 -66 12 10 14 23 10 50 -4 26 0 52 14 84 11 26 20 65 21 88 0 23 3 36 6 30
8 -20 22 -15 18 6 -2 13 4 21 18 25 33 9 35 8 39 -16 3 -18 5 -16 9 10 4 25 2
35 -9 40 -9 3 -18 0 -20 -6 -2 -7 -10 -12 -18 -12 -12 0 -12 4 -3 21 9 17 7
25 -11 44 l-21 23 26 28 c21 23 26 36 22 61 -6 35 22 71 44 57 7 -4 10 -3 6 3
-9 14 18 24 39 16 14 -5 14 -3 -2 15 -13 16 -20 18 -26 9 -5 -8 -8 -5 -8 9 0
28 19 44 55 44 24 0 35 -7 50 -32 10 -18 20 -27 23 -20 2 7 -2 20 -9 28 -10
13 -10 17 2 25 8 5 21 9 29 9 8 0 35 14 60 30 l45 30 3 -40 c3 -35 9 -44 43
-66 76 -48 81 -48 135 -17 60 35 117 53 150 47 15 -3 24 0 24 8 0 9 3 8 10 -2
6 -10 10 -11 10 -2 0 6 6 12 14 12 8 0 16 -6 19 -12 3 -10 7 -10 19 0 12 10
20 8 43 -14 35 -33 44 -25 11 11 -15 16 -32 25 -41 21 -8 -3 -15 0 -15 7 0 9
-2 9 -8 0 -4 -7 -13 -9 -21 -4 -7 5 -38 3 -70 -5 -90 -21 -112 -18 -182 27
-88 57 -119 59 -192 12z m-640 -109 c-3 -3 -12 -4 -19 -1 -8 3 -5 6 6 6 11 1
17 -2 13 -5z"/>
<path d="M3270 4830 c0 -23 -50 -60 -80 -60 -17 0 -40 -5 -51 -10 -26 -15 -24
-40 4 -39 21 0 21 1 2 8 -19 8 -19 9 5 19 14 5 43 14 65 18 29 7 43 16 53 37
15 31 32 34 55 9 28 -31 4 -77 -56 -108 -24 -13 -30 -13 -49 1 -13 8 -29 15
-38 14 -13 0 -13 -1 0 -6 28 -10 50 -36 50 -58 0 -27 -23 -48 -124 -113 -63
-42 -82 -50 -97 -41 -25 13 -34 54 -20 85 16 37 13 75 -9 112 -16 26 -26 32
-55 32 -19 0 -35 -4 -35 -9 0 -6 15 -7 33 -4 45 7 55 -18 45 -111 -8 -70 -7
-72 20 -97 34 -31 89 -31 168 -1 37 14 56 16 69 9 10 -5 20 -5 24 -1 3 5 15
14 26 20 11 6 24 20 30 32 6 14 19 22 36 22 26 0 59 -27 59 -47 0 -6 5 -13 11
-15 8 -3 6 -10 -5 -21 -16 -16 -14 -17 46 -17 44 0 59 3 48 10 -8 5 -28 10
-45 11 -16 0 -24 3 -17 6 8 3 12 29 12 78 0 86 10 97 79 88 23 -3 59 0 80 7
29 9 43 10 60 1 14 -8 21 -8 21 -1 0 5 -8 10 -17 11 -14 0 -15 2 -3 6 8 4 21
13 29 20 12 12 16 12 30 -2 15 -15 14 -18 -11 -39 -26 -20 -28 -27 -28 -93 0
-48 -4 -73 -12 -76 -7 -3 -8 -6 -3 -6 6 -1 10 -22 10 -47 -1 -33 -6 -49 -18
-55 -21 -12 -22 -45 -1 -53 64 -25 120 20 110 87 -6 33 -4 38 11 35 27 -5 31
-122 6 -151 -15 -18 -15 -20 -1 -8 15 11 27 8 83 -23 63 -34 68 -35 95 -21 16
8 37 12 47 9 14 -5 15 -4 4 4 -11 8 -10 12 8 22 13 6 30 9 38 6 12 -5 13 -3 7
7 -5 7 -2 5 7 -5 9 -9 19 -14 23 -11 3 4 6 1 6 -6 0 -7 5 -9 10 -6 6 3 10 1
10 -6 0 -7 3 -10 6 -6 4 3 14 -2 23 -11 9 -10 12 -11 6 -3 -7 11 -7 13 2 8 7
-4 37 6 67 23 l55 31 3 76 c2 57 7 78 18 81 12 4 13 2 3 -9 -13 -16 -12 -126
1 -147 4 -7 31 -23 59 -37 l52 -26 -4 -57 c-1 -31 -6 -59 -10 -62 -4 -3 -17
-20 -30 -38 -12 -18 -36 -39 -52 -48 -28 -14 -33 -14 -61 4 -22 15 -32 29 -35
53 -4 36 -35 76 -71 90 -13 5 -21 13 -18 18 7 11 -37 41 -59 41 -8 0 -15 -7
-15 -15 0 -12 -15 -15 -75 -15 -44 0 -75 4 -75 10 0 6 -24 22 -53 36 l-53 26
-52 -26 c-47 -24 -52 -29 -52 -61 0 -32 -3 -35 -42 -45 -53 -14 -187 -50 -210
-56 -16 -5 -18 3 -18 60 0 56 3 67 21 76 43 24 99 87 99 114 0 26 0 26 -82 26
-74 0 -84 2 -109 26 -40 39 -97 43 -151 11 -49 -28 -65 -54 -70 -110 -4 -34 0
-42 35 -73 31 -28 38 -42 37 -67 -3 -57 0 -66 28 -82 26 -15 24 -16 -47 -12
-40 3 -76 9 -80 14 -3 6 -18 13 -32 16 -15 4 -43 25 -63 47 l-36 40 0 -45 c0
-38 -3 -45 -19 -45 -11 0 -22 -4 -25 -8 -3 -5 5 -8 16 -8 15 1 24 -7 29 -24 5
-18 7 -8 8 33 l1 59 39 -32 c107 -84 211 -81 586 16 235 60 270 67 365 68 116
1 164 -11 204 -51 51 -50 25 -151 -50 -195 -16 -9 -66 -24 -109 -32 -44 -8
-78 -15 -75 -16 21 -7 91 -3 94 5 3 6 5 1 5 -11 1 -14 19 -30 61 -54 33 -19
60 -37 60 -41 0 -7 -65 -23 -130 -33 -18 -2 -15 -4 10 -5 44 -1 123 20 176 47
76 39 143 142 144 221 1 35 17 61 63 101 53 46 61 64 68 155 3 44 10 90 14
102 12 37 -18 38 -66 4 -64 -47 -85 -41 -108 31 -17 51 -36 66 -59 44 -30 -26
-46 -19 -102 44 -50 58 -69 68 -78 42 -2 -7 6 -12 21 -12 32 0 45 -30 21 -47
-25 -19 -38 -17 -103 16 l-58 30 -22 -30 c-24 -32 -43 -35 -102 -17 -35 10
-42 9 -78 -16 -36 -25 -39 -30 -29 -51 24 -53 -20 -105 -76 -91 -31 8 -34 32
-6 41 18 6 20 12 15 48 -8 49 3 62 100 120 78 46 118 88 113 118 -3 26 -21 28
-104 14 -36 -6 -42 -5 -57 19 -22 33 -32 33 -102 -4 -92 -48 -125 -42 -230 46
-75 62 -145 93 -145 64z m145 -80 c3 -5 -1 -10 -10 -10 -9 0 -13 5 -10 10 3 6
8 10 10 10 2 0 7 -4 10 -10z m469 -63 c16 -12 14 -16 -24 -55 -27 -26 -51 -42
-67 -42 -13 0 -22 -3 -19 -8 2 -4 -13 -17 -35 -29 l-39 -21 0 63 c0 74 10 86
79 96 74 10 86 10 105 -4z m-726 -149 c-6 -17 -36 -34 -44 -25 -4 4 -2 13 4
19 9 9 12 9 12 -1 0 -7 5 -9 10 -6 6 4 8 11 5 16 -4 5 -1 9 5 9 7 0 10 -5 8
-12z m896 -13 c33 -20 37 -25 22 -31 -9 -4 -28 -2 -42 5 -14 6 -33 11 -42 10
-10 0 -12 -3 -4 -6 6 -2 10 -9 6 -14 -3 -5 -2 -8 3 -7 4 1 18 -1 31 -6 20 -7
22 -14 22 -69 0 -62 0 -63 -42 -90 -31 -20 -44 -24 -50 -15 -4 8 0 16 12 20
13 5 20 17 20 34 0 24 -3 26 -35 22 -24 -3 -35 0 -35 9 0 7 -6 13 -14 13 -8 0
-13 -10 -13 -25 0 -14 3 -25 7 -25 4 0 5 -11 2 -25 -2 -15 0 -25 7 -25 6 0 11
5 11 11 0 8 5 8 15 -1 8 -7 15 -16 15 -21 0 -16 -26 -9 -72 20 -43 27 -45 31
-51 87 -6 52 -4 61 14 76 12 10 25 15 30 12 5 -3 9 0 9 5 0 6 18 11 40 11 31
0 43 5 56 25 20 31 29 31 78 0z m-208 -20 c-27 -21 -53 -20 -36 0 7 8 22 15
34 15 21 -1 21 -1 2 -15z m375 -20 c70 -52 76 -86 25 -142 -28 -31 -40 -37
-72 -36 -30 1 -45 8 -67 34 -26 28 -29 38 -24 77 5 47 30 77 72 85 11 2 23 5
26 6 3 0 21 -10 40 -24z m-883 -49 c34 -18 158 -143 150 -151 -14 -14 -157
-45 -210 -45 -46 0 -62 5 -87 26 -56 47 -36 129 41 167 41 20 71 21 106 3z
m1157 -178 c-8 -36 -41 -88 -56 -88 -5 0 -9 18 -9 39 0 31 6 44 26 60 37 29
47 26 39 -11z m-627 -7 c7 -21 -22 -34 -30 -13 -6 16 -7 16 -7 0 -1 -11 -12
-20 -28 -24 -16 -3 -37 -8 -48 -10 -17 -4 -18 -3 -4 5 10 7 15 19 12 35 -5 23
-3 24 48 22 34 -1 54 -6 57 -15z m-460 -40 c29 -40 15 -80 -16 -49 -9 9 -12 8
-12 -7 0 -18 0 -18 -15 1 -8 11 -15 14 -15 7 0 -20 -110 -18 -110 2 0 8 4 15
10 15 5 0 12 11 16 24 5 21 13 26 47 29 23 2 49 4 58 5 8 1 25 -11 37 -27z
m-30 -80 c26 -2 10 -21 -18 -21 -19 0 -30 5 -30 14 0 8 8 13 18 11 9 -2 23 -4
30 -4z m-58 -10 c0 -6 -4 -12 -9 -15 -13 -8 -42 4 -35 15 7 12 44 12 44 0z
m1026 -146 c-14 -30 -27 -55 -30 -55 -4 0 -6 28 -6 63 0 57 2 63 28 78 26 14
27 14 30 -8 2 -13 -8 -48 -22 -78z m-78 79 c19 -13 22 -24 22 -77 l0 -62 -57
-32 -58 -32 -52 32 c-29 18 -53 37 -53 44 0 18 72 36 82 20 6 -9 8 -9 8 1 0 6
9 12 20 12 11 0 20 -6 21 -12 0 -7 5 1 11 17 6 17 18 35 27 42 14 10 13 11 -6
6 -26 -6 -27 -3 -11 32 13 29 16 30 46 9z"/>
<path d="M3817 4662 c-19 -21 -13 -34 11 -25 18 7 32 22 32 36 0 14 -27 7 -43
-11z"/>
<path d="M3753 4615 c0 -22 2 -30 4 -17 2 12 2 30 0 40 -3 9 -5 -1 -4 -23z"/>
<path d="M3980 4438 c0 -12 3 -18 7 -14 11 10 12 36 2 36 -5 0 -9 -10 -9 -22z"/>
<path d="M3912 4441 c-11 -7 -11 -9 2 -14 10 -4 16 -1 16 8 0 17 -1 17 -18 6z"/>
<path d="M3950 4430 c0 -5 5 -10 10 -10 6 0 10 5 10 10 0 6 -4 10 -10 10 -5 0
-10 -4 -10 -10z"/>
<path d="M4232 4360 c-7 -12 -23 -20 -39 -20 -19 0 -24 -3 -17 -10 14 -14 62
4 70 25 10 24 0 27 -14 5z"/>
<path d="M4100 3920 c0 -5 6 -10 13 -11 6 0 20 -2 30 -4 9 -2 17 3 17 11 0 9
-11 14 -30 14 -16 0 -30 -4 -30 -10z"/>
<path d="M4174 3914 c3 -9 6 -18 6 -20 0 -3 5 -2 10 1 6 4 7 11 4 17 -4 6 2 6
15 -1 15 -8 21 -9 21 -1 0 6 5 8 12 4 7 -4 8 -3 4 4 -4 7 -23 12 -43 12 -28 0
-34 -3 -29 -16z"/>
<path d="M2317 4697 c-33 -20 -34 -24 -21 -41 8 -11 14 -15 14 -9 0 13 55 22
72 12 6 -4 20 -3 29 2 21 11 49 2 49 -16 0 -8 -7 -15 -15 -17 -11 -2 -11 -8 5
-28 l20 -25 0 42 c0 38 -4 44 -32 60 -78 42 -83 43 -121 20z"/>
<path d="M1723 4645 c7 -13 14 -20 15 -14 5 14 -6 39 -17 39 -5 0 -4 -11 2
-25z"/>
<path d="M2250 4619 c0 -31 1 -32 16 -17 16 15 16 18 0 33 -15 15 -16 14 -16
-16z"/>
<path d="M1423 4608 c-32 -15 -29 -33 11 -56 46 -27 75 -70 56 -82 -9 -6 -24
-2 -41 11 -38 27 -47 24 -60 -20 -9 -32 -9 -44 5 -73 19 -39 116 -108 152
-108 13 0 24 -4 24 -10 0 -5 -8 -10 -18 -10 -10 0 -27 -6 -37 -14 -18 -13 -18
-16 -5 -42 9 -15 34 -36 58 -46 23 -10 42 -24 42 -31 0 -7 -22 -25 -50 -40
-27 -15 -59 -40 -70 -54 l-21 -27 25 -19 c26 -19 26 -19 9 -48 -18 -30 -18
-30 7 -49 l25 -19 -29 -30 c-35 -37 -29 -56 21 -68 29 -7 39 -14 41 -32 2 -13
-1 -28 -7 -34 -20 -20 -13 -47 12 -47 29 0 57 -29 57 -58 0 -17 -6 -22 -25
-22 -28 0 -32 12 -10 30 8 7 15 18 15 24 -1 16 -40 -33 -40 -50 0 -9 11 -14
29 -14 17 0 32 -4 35 -9 6 -10 -20 -35 -47 -44 -24 -9 -17 -28 14 -45 16 -9
50 -12 101 -9 68 3 83 1 124 -22 26 -14 57 -38 68 -54 18 -25 19 -31 7 -70 -7
-23 -14 -58 -15 -77 -4 -82 -50 -132 -133 -146 -62 -10 -107 10 -156 68 l-42
50 -77 -5 c-102 -8 -168 -42 -168 -87 0 -14 11 -22 40 -30 37 -10 60 -33 60
-60 0 -6 -20 -19 -44 -29 -49 -22 -89 -70 -84 -104 3 -20 8 -22 53 -19 64 4
105 -11 105 -38 0 -18 -35 -49 -96 -86 -18 -11 -18 -12 -1 -32 10 -11 37 -25
60 -31 36 -10 51 -9 106 9 36 11 73 18 83 14 23 -7 64 18 73 46 10 32 35 25
35 -10 0 -34 17 -45 55 -36 30 8 71 66 86 121 20 75 49 88 129 60 44 -15 131
-19 163 -6 10 3 23 18 30 31 10 19 32 31 92 51 74 24 83 31 123 82 40 53 81
89 127 112 26 14 31 42 10 65 -15 16 -15 19 1 34 23 23 78 50 154 74 36 12
102 33 147 47 45 15 87 24 92 21 5 -3 12 -21 15 -41 8 -43 50 -94 93 -111 21
-9 73 -14 146 -14 125 0 145 -8 133 -54 -8 -31 -60 -50 -141 -50 -69 -1 -113
18 -208 91 -32 25 -81 54 -108 64 -113 43 -242 7 -251 -71 -3 -20 3 -25 37
-32 67 -14 71 -48 5 -48 -64 0 -121 -60 -105 -111 6 -18 12 -20 46 -14 29 5
47 2 64 -9 34 -22 31 -40 -9 -64 -36 -22 -76 -86 -76 -123 0 -23 11 -23 99 2
35 10 54 10 94 -1 80 -20 94 -17 146 34 42 42 71 57 71 39 0 -4 -10 -17 -21
-29 -40 -43 3 -78 73 -62 35 7 41 6 62 -18 l23 -27 48 16 c44 16 49 16 77 -1
28 -16 30 -16 43 2 8 10 16 24 18 30 3 6 15 1 30 -13 25 -23 27 -23 52 -7 24
16 28 16 44 2 28 -25 59 -20 76 14 8 16 23 34 32 40 17 10 16 10 -2 9 -41 -3
-56 1 -62 17 -3 9 0 20 8 25 10 6 10 9 2 9 -9 0 -13 17 -13 50 l0 49 -57 34
-58 33 -3 68 c-2 45 1 73 10 84 7 9 8 13 2 9 -6 -4 -37 7 -68 24 l-56 31 0 67
c0 39 5 73 13 81 10 12 9 12 -4 2 -12 -9 -28 -5 -83 24 l-67 36 3 71 3 71 60
32 60 33 3 70 c2 61 0 72 -15 79 -10 4 -39 20 -66 35 l-47 29 -49 -31 c-52
-34 -91 -46 -91 -30 0 6 -4 8 -9 5 -5 -3 -12 1 -15 10 -3 9 -13 14 -20 11 -28
-11 -48 39 -44 113 2 38 -1 65 -5 61 -4 -4 -7 -39 -5 -77 l3 -69 -40 -26 c-22
-14 -48 -28 -58 -32 -16 -6 -18 -17 -15 -81 2 -41 1 -73 -1 -71 -2 3 -13 0
-25 -6 -18 -9 -19 -8 -6 3 18 16 15 108 -3 120 -9 6 -9 10 2 17 10 7 5 13 -23
26 -21 10 -33 22 -29 29 3 6 3 8 -2 4 -4 -4 -16 -3 -27 3 -14 7 -23 7 -33 -1
-8 -7 -20 -8 -26 -4 -7 4 -9 3 -6 -3 3 -5 -10 -18 -29 -28 l-35 -19 3 -69 c3
-81 24 -105 31 -35 l4 43 -1 -45 c-1 -42 2 -46 38 -68 l39 -22 34 20 c44 26
57 26 18 0 -41 -27 -22 -25 27 2 l39 22 44 -23 c49 -26 50 -41 4 -41 -16 0
-29 -4 -29 -9 0 -6 15 -9 33 -7 84 8 52 -67 -36 -83 -26 -5 -54 -17 -61 -26
-12 -16 -13 -16 -19 -1 -4 9 -14 16 -24 16 -12 0 -14 3 -6 11 6 6 41 14 77 16
36 3 66 10 66 15 0 5 -4 7 -9 3 -5 -3 -12 3 -14 12 -4 17 -5 17 -6 1 -1 -21
-51 -26 -51 -5 0 9 -2 9 -8 0 -11 -17 -44 -20 -50 -4 -2 8 0 11 6 8 6 -4 9 5
7 23 -2 35 -10 45 -33 45 -10 1 -43 14 -75 30 l-58 30 -57 -31 -57 -30 -3 -71
-3 -71 63 -35 c53 -30 65 -33 78 -22 8 7 34 22 57 34 l43 21 61 -30 c56 -29
60 -33 57 -62 -3 -28 -8 -32 -82 -58 -43 -15 -91 -37 -107 -49 -15 -12 -36
-21 -45 -21 -9 0 -41 -14 -71 -30 l-55 -30 -59 32 -60 33 -57 -30 -57 -30 0
-75 0 -75 43 -23 c24 -13 41 -26 39 -28 -2 -3 -24 7 -47 20 l-44 25 -58 -31
-58 -30 0 -50 c0 -35 -4 -48 -12 -45 -7 2 -12 12 -12 21 2 22 -13 21 -19 -1
-4 -17 -5 -17 -6 0 0 9 -8 17 -17 17 -8 0 -12 -4 -9 -10 3 -5 1 -10 -4 -10 -6
0 -11 6 -11 13 0 8 -4 7 -10 -3 -6 -10 -10 -11 -10 -2 0 7 -13 12 -30 12 -25
0 -30 -4 -29 -22 1 -16 3 -18 6 -6 2 9 13 16 23 15 18 -1 18 -2 0 -25 -10 -12
-22 -36 -25 -52 -8 -36 -16 -37 -56 -8 -29 22 -30 24 -28 101 1 42 6 80 10 83
5 3 9 0 9 -5 0 -6 19 -1 42 11 23 12 36 24 30 26 -6 2 -20 -1 -31 -7 -33 -18
-45 -12 -18 9 28 22 66 27 69 8 0 -7 4 10 8 37 7 50 7 50 8 10 2 -39 5 -42 60
-71 l57 -30 55 31 55 31 3 58 c4 67 -3 78 -67 111 l-46 23 -47 -24 c-27 -13
-48 -21 -48 -16 0 4 20 18 45 30 l46 22 -3 71 -3 71 -57 30 -58 30 0 79 0 79
60 30 60 30 0 69 c0 68 1 69 33 85 17 8 45 24 62 35 29 20 29 20 65 0 l35 -21
-27 22 c-26 20 -28 27 -28 90 l0 68 52 32 c44 27 55 30 77 21 24 -11 25 -10 7
4 -11 8 -23 15 -28 15 -4 0 -8 31 -8 69 l0 69 68 39 67 39 57 -34 56 -33 44
22 c24 12 50 27 59 35 13 12 19 10 45 -14 17 -15 39 -29 50 -30 10 -2 24 -8
30 -13 11 -9 112 40 133 65 7 9 11 40 9 77 -3 58 -5 64 -33 80 -16 9 -49 20
-72 24 -39 6 -43 5 -43 -14 0 -12 -4 -21 -10 -21 -5 0 -7 7 -4 15 8 20 -18 20
-56 0 -28 -15 -30 -19 -30 -78 l0 -62 -120 3 -120 3 0 58 0 58 -42 19 c-52 23
-115 23 -168 -1 l-39 -18 -3 -76 -3 -76 -52 -28 -53 -28 0 -74 0 -75 -37 -20
c-21 -12 -50 -28 -64 -37 -25 -16 -28 -15 -86 20 l-61 37 -66 -37 -66 -38 0
-65 c0 -63 -1 -66 -35 -87 l-34 -23 -26 24 c-23 21 -24 25 -10 39 20 21 19 32
-7 57 l-23 21 34 31 c21 19 40 28 52 25 11 -3 16 -1 13 5 -3 5 3 16 15 24 31
22 27 53 -9 65 -16 6 -30 15 -30 21 0 5 -4 7 -9 3 -10 -5 -31 24 -31 43 0 5
13 12 29 15 29 6 51 39 31 45 -7 3 2 13 19 23 31 19 31 19 29 96 l-2 78 -3
-76 -4 -77 -43 -23 -44 -23 -51 33 c-64 42 -81 65 -81 114 0 41 20 58 45 37
11 -9 12 -17 5 -30 -27 -51 5 -103 62 -103 34 0 68 31 68 63 0 22 -37 70 -55
70 -7 0 -15 9 -18 20 -4 14 0 20 11 20 14 0 15 2 2 9 -8 6 -17 8 -21 5 -4 -2
-13 3 -20 12 -7 8 -25 22 -41 30 -34 17 -29 30 15 43 19 5 24 9 12 9 -11 1
-30 -4 -42 -10z m872 -176 c18 -13 18 -14 1 -8 -16 5 -17 4 -6 -9 9 -11 9 -15
1 -15 -7 0 -9 -4 -6 -10 3 -5 1 -10 -4 -10 -6 0 -11 4 -11 8 0 5 -7 9 -15 9
-8 0 -15 -4 -15 -7 0 -11 26 -31 32 -25 3 3 11 -2 19 -11 12 -14 10 -19 -10
-35 -35 -28 -77 -24 -112 10 -32 33 -37 65 -13 99 17 25 36 30 28 7 -11 -27 5
-16 21 16 16 30 16 30 43 13 15 -9 36 -24 47 -32z m35 28 c0 -5 -2 -10 -4 -10
-3 0 -8 5 -11 10 -3 6 -1 10 4 10 6 0 11 -4 11 -10z m404 -45 c-9 -54 -21 -75
-44 -75 -14 0 -22 11 -30 43 -6 23 -13 49 -15 57 -4 12 6 15 46 15 l50 0 -7
-40z m-1184 11 c0 -8 -71 -12 -76 -4 -3 4 13 8 35 8 23 0 41 -2 41 -4z m-5
-36 c4 -6 -10 -10 -35 -10 -25 0 -39 4 -35 10 3 6 19 10 35 10 16 0 32 -4 35
-10z m775 0 c0 -5 -5 -10 -11 -10 -5 0 -7 5 -4 10 3 6 8 10 11 10 2 0 4 -4 4
-10z m-167 -96 c60 -31 67 -42 67 -111 0 -34 -4 -63 -8 -63 -5 0 -22 -11 -38
-25 -37 -31 -47 -31 -111 3 l-53 27 0 61 0 62 48 31 c55 36 54 36 95 15z
m-183 -249 c0 -2 -9 -3 -19 -2 -11 0 -18 5 -15 9 4 6 34 0 34 -7z m-157 -36
c-13 -12 -140 -24 -128 -11 6 5 29 12 53 15 23 2 45 7 48 10 3 3 13 3 21 0 8
-3 11 -9 6 -14z m187 2 c0 -10 7 -21 15 -25 28 -10 16 -27 -17 -24 -29 3 -33
7 -35 36 -2 26 1 32 17 32 13 0 20 -7 20 -19z m61 -75 c5 3 9 -1 9 -8 0 -15
-47 -20 -72 -7 -10 5 -19 5 -23 0 -7 -12 -45 -10 -45 2 0 4 -4 5 -10 2 -5 -3
-10 -2 -10 3 0 5 28 10 62 11 34 1 64 4 67 7 3 3 7 0 9 -5 2 -6 8 -9 13 -5z
m-311 -11 c0 -10 -7 -14 -22 -11 -13 3 -26 5 -30 5 -5 1 -8 6 -8 11 0 6 14 10
30 10 20 0 30 -5 30 -15z m60 4 c0 -5 -4 -7 -10 -4 -5 3 -10 2 -10 -4 0 -6 -7
-8 -15 -5 -24 9 -17 24 10 24 14 0 25 -5 25 -11z m50 -34 c0 -2 -10 -9 -22
-15 -22 -11 -22 -10 -4 4 21 17 26 19 26 11z m-103 -162 c-2 -21 -4 -4 -4 37
0 41 2 58 4 38 2 -21 2 -55 0 -75z m75 82 c4 18 13 20 59 19 40 0 54 -4 54
-15 0 -8 -12 -15 -27 -17 -18 -2 -28 1 -28 10 0 10 -3 9 -10 -2 -9 -13 -11
-13 -21 0 -9 13 -10 12 -5 -2 4 -15 -1 -18 -24 -18 -22 0 -30 5 -30 18 0 29
14 36 21 10 5 -22 5 -22 11 -3z m1021 11 c-4 -5 0 -5 8 0 19 12 32 12 46 1 14
-10 8 -27 -10 -27 -7 0 -6 4 3 10 9 6 10 10 3 10 -6 0 -14 -4 -17 -8 -8 -13
-69 -13 -78 0 -6 10 -8 10 -8 1 0 -7 -4 -13 -10 -13 -5 0 -10 8 -10 18 0 13 9
17 39 17 22 0 37 -4 34 -9z m-173 -6 c0 -6 -35 -10 -90 -9 -49 1 -90 5 -90 10
0 5 41 9 90 9 54 0 90 -4 90 -10z m255 -40 c3 -5 2 -10 -3 -10 -5 0 -8 -13 -6
-30 2 -16 -1 -32 -6 -35 -6 -4 -10 12 -10 39 0 43 11 59 25 36z m165 -4 c0 -8
-6 -17 -12 -19 -7 -3 4 -6 24 -6 34 -1 37 -4 34 -23 -2 -16 -9 -22 -22 -20
-11 2 -33 6 -51 9 -54 9 -50 73 4 73 13 0 23 -6 23 -14z m-1186 -18 c8 -14 5
-22 -14 -40 -14 -13 -27 -21 -30 -19 -21 18 -28 31 -27 55 2 23 6 27 31 24 16
-2 34 -11 40 -20z m21 -57 c-17 -34 -21 -36 -31 -19 -4 6 -3 8 3 5 12 -8 32
34 34 71 l2 27 4 -27 c2 -15 -3 -40 -12 -57z m875 60 c7 -14 6 -21 -3 -24 -9
-4 -8 -8 3 -16 12 -9 12 -11 -2 -16 -9 -4 -27 -5 -40 -3 -19 2 -24 10 -26 41
-3 35 -2 37 27 37 20 0 34 -7 41 -19z m-241 -55 c-1 -19 -2 -18 -8 4 l-8 25
-5 -25 c-4 -21 -5 -20 -7 9 -1 29 1 32 14 21 8 -7 15 -22 14 -34z m18 -8 c-3
-8 -6 -5 -6 6 -1 11 2 17 5 13 3 -3 4 -12 1 -19z m473 -66 c3 -3 0 -7 -7 -9
-8 -3 -8 -13 3 -40 8 -19 14 -37 12 -38 -4 -4 -86 -7 -154 -6 l-51 1 11 51 c9
40 18 55 39 66 15 8 25 18 22 23 -4 6 1 7 11 3 12 -4 15 -3 10 6 -6 10 87 -41
104 -57z m-530 27 c22 -12 40 -25 40 -29 0 -11 -30 -21 -41 -14 -5 3 -9 1 -9
-5 0 -5 -8 -12 -17 -14 -10 -3 -4 -5 14 -6 48 -2 63 -11 63 -37 0 -20 -5 -24
-30 -24 -26 0 -30 4 -31 28 l-2 27 -4 -27 c-4 -23 -9 -28 -34 -28 -25 0 -29 4
-30 28 l-2 27 -4 -27 c-4 -23 -9 -28 -34 -28 -24 0 -29 4 -29 24 0 25 20 35
75 36 27 1 25 3 -17 17 -27 9 -48 19 -48 22 0 9 72 50 87 51 7 0 31 -9 53 -21z
m315 -19 c3 -6 -1 -7 -9 -4 -18 7 -21 14 -7 14 6 0 13 -4 16 -10z m-1068 -26
c-3 -3 -12 -4 -19 -1 -8 3 -5 6 6 6 11 1 17 -2 13 -5z m1163 -93 c0 -5 12 -8
28 -7 15 2 33 1 40 -1 13 -5 17 -32 5 -34 -5 -1 -21 -2 -38 -4 -16 -1 -37 -4
-45 -6 -9 -3 -15 4 -16 21 -1 14 0 28 3 33 6 10 23 9 23 -2z m-1310 -15 c0
-21 -20 -30 -33 -17 -9 9 -8 14 3 21 21 14 30 12 30 -4z m875 5 c6 -1 11 -10
12 -21 1 -16 -4 -20 -28 -20 -21 0 -29 5 -30 18 0 14 -2 14 -9 -3 -8 -18 -9
-18 -9 5 -1 26 -2 26 64 21z m245 -61 c-8 -5 -19 -10 -25 -10 -5 0 -3 5 5 10
8 5 20 10 25 10 6 0 3 -5 -5 -10z m109 -24 c9 -11 6 -15 -14 -18 -19 -4 -25
-1 -25 13 0 22 23 25 39 5z m-929 -16 c0 -5 -7 -10 -16 -10 -8 0 -12 5 -9 10
3 6 10 10 16 10 5 0 9 -4 9 -10z m1103 -27 c-6 -16 -5 -17 13 -3 18 14 18 14
-1 -10 -11 -14 -21 -27 -22 -29 -2 -3 4 52 6 57 0 1 3 2 6 2 2 0 1 -8 -2 -17z
m97 -29 c0 -9 5 -12 12 -8 6 4 8 3 4 -4 -3 -6 1 -15 10 -20 11 -6 13 -11 5
-16 -6 -4 -11 -3 -11 2 0 6 -9 8 -20 5 -11 -3 -20 0 -20 6 0 5 8 8 18 5 14 -5
15 -4 2 5 -21 15 -30 14 -30 -4 0 -8 -4 -15 -10 -15 -5 0 -10 6 -10 14 0 9 -7
12 -20 9 -24 -6 -25 0 -3 37 16 28 18 28 45 14 15 -8 28 -21 28 -30z m-1167 0
c27 -10 20 -24 -13 -24 -24 0 -30 4 -30 21 0 13 5 19 13 15 6 -3 20 -9 30 -12z
m-23 -70 c0 -8 -4 -12 -10 -9 -5 3 -10 10 -10 16 0 5 5 9 10 9 6 0 10 -7 10
-16z m788 -5 c8 -12 9 -18 3 -15 -9 6 -50 -14 -107 -50 -22 -15 -24 -15 -24 0
0 9 4 16 8 16 5 0 17 7 28 16 18 14 18 14 -6 3 -24 -12 -24 -11 -10 6 15 18
65 44 85 45 6 0 16 -9 23 -21z m142 -15 c0 -2 -13 -4 -30 -4 -20 0 -30 5 -30
14 0 12 6 13 30 5 17 -6 30 -13 30 -15z m-95 -14 c3 -6 -1 -7 -9 -4 -18 7 -21
14 -7 14 6 0 13 -4 16 -10z m90 -28 c19 11 19 10 2 -9 -14 -16 -17 -34 -15
-79 l3 -58 52 -30 c68 -39 62 -45 -7 -7 -29 16 -58 28 -64 27 -6 -2 -8 -1 -3
1 4 3 7 34 7 70 0 51 -4 69 -17 80 -17 13 -17 14 2 4 13 -6 26 -6 40 1z m-658
-8 c-3 -3 -12 -4 -19 -1 -8 3 -5 6 6 6 11 1 17 -2 13 -5z m261 -19 c-3 -3 -9
2 -12 12 -6 14 -5 15 5 6 7 -7 10 -15 7 -18z m-28 11 c0 -2 -8 -10 -17 -17
-16 -13 -17 -12 -4 4 13 16 21 21 21 13z m-920 -22 c0 -8 -19 -13 -24 -6 -3 5
1 9 9 9 8 0 15 -2 15 -3z m-130 -48 l0 -44 -35 11 c-44 13 -44 32 -2 57 17 11
33 20 35 20 1 0 2 -20 2 -44z m630 14 c0 -5 -4 -10 -10 -10 -5 0 -10 5 -10 10
0 6 5 10 10 10 6 0 10 -4 10 -10z m-65 -30 c3 -5 1 -10 -4 -10 -6 0 -11 5 -11
10 0 6 2 10 4 10 3 0 8 -4 11 -10z m35 0 c0 -5 -4 -10 -10 -10 -5 0 -10 5 -10
10 0 6 5 10 10 10 6 0 10 -4 10 -10z m30 0 c0 -5 -4 -10 -10 -10 -5 0 -10 5
-10 10 0 6 5 10 10 10 6 0 10 -4 10 -10z m173 3 c-7 -2 -19 -2 -25 0 -7 3 -2
5 12 5 14 0 19 -2 13 -5z m419 -27 c2 -19 0 -32 -4 -30 -8 5 -12 64 -4 64 2 0
6 -15 8 -34z m478 4 c0 -25 -7 -33 -41 -51 -23 -11 -38 -16 -35 -11 3 5 19 15
36 22 24 10 30 19 30 41 0 16 2 29 5 29 3 0 5 -13 5 -30z m-1426 -21 c-6 -11
-24 -2 -24 11 0 5 7 7 15 4 8 -4 12 -10 9 -15z m296 17 c0 -3 -4 -8 -10 -11
-5 -3 -10 -1 -10 4 0 6 5 11 10 11 6 0 10 -2 10 -4z m60 -6 c0 -5 -4 -10 -10
-10 -5 0 -10 5 -10 10 0 6 5 10 10 10 6 0 10 -4 10 -10z m30 0 c0 -5 -4 -10
-10 -10 -5 0 -10 5 -10 10 0 6 5 10 10 10 6 0 10 -4 10 -10z m-60 -30 c0 -5
-4 -10 -10 -10 -5 0 -10 5 -10 10 0 6 5 10 10 10 6 0 10 -4 10 -10z m30 0 c0
-5 -4 -10 -10 -10 -5 0 -10 5 -10 10 0 6 5 10 10 10 6 0 10 -4 10 -10z m-274
-23 c13 -12 -25 -13 -47 -1 -24 14 -24 14 9 10 19 -3 36 -7 38 -9z m895 -8
c23 -19 23 -20 2 -10 -12 6 -33 11 -48 11 -15 0 -24 4 -20 10 10 16 41 11 66
-11z m-1177 -10 c36 -21 36 -22 36 -89 0 -61 -3 -69 -24 -84 -23 -15 -25 -14
-28 6 -4 28 -47 41 -110 33 -43 -5 -48 -3 -48 13 0 28 38 72 77 88 18 8 39 23
45 34 15 24 10 24 52 -1z m1291 1 c-3 -5 -12 -10 -18 -10 -7 0 -6 4 3 10 19
12 23 12 15 0z m240 0 c-3 -5 -12 -10 -18 -10 -7 0 -6 4 3 10 19 12 23 12 15
0z m335 -8 c0 -5 -7 -9 -15 -9 -8 0 -15 4 -15 9 0 4 7 8 15 8 8 0 15 -4 15 -8z
m-1092 -27 c-3 -3 -9 2 -12 12 -6 14 -5 15 5 6 7 -7 10 -15 7 -18z m-176 1 c7
4 8 2 4 -5 -9 -13 -26 -5 -25 12 0 9 2 8 6 -1 2 -6 10 -9 15 -6z m108 10 c0
-11 -19 -15 -25 -6 -3 5 1 10 9 10 9 0 16 -2 16 -4z m30 -5 c0 -6 -4 -12 -8
-15 -5 -3 -9 1 -9 9 0 8 4 15 9 15 4 0 8 -4 8 -9z m500 -27 c0 -23 -1 -24 -16
-9 -9 8 -13 22 -10 31 8 22 26 7 26 -22z m126 21 c10 -8 36 -15 57 -15 35 0
37 -2 37 -32 0 -50 -24 -68 -92 -68 l-58 0 0 65 c0 56 2 65 18 65 10 0 27 -7
38 -15z m265 -38 c-10 -9 -11 -8 -5 6 3 10 9 15 12 12 3 -3 0 -11 -7 -18z
m-946 -17 c0 -9 -11 -16 -27 -18 -23 -3 -28 1 -28 18 0 17 5 21 28 18 16 -2
27 -9 27 -18z m1152 -6 c-3 -3 -12 -4 -19 -1 -8 3 -5 6 6 6 11 1 17 -2 13 -5z
m-657 -39 c5 3 7 0 4 -9 -7 -18 -46 -7 -52 15 -3 11 -1 11 7 -1 9 -12 11 -10
11 10 l1 25 10 -23 c5 -13 13 -21 19 -17z m424 -23 c3 -5 -1 -9 -9 -9 -8 0
-12 4 -9 9 3 4 7 8 9 8 2 0 6 -4 9 -8z m-313 -18 c17 -8 29 -17 27 -19 -8 -8
-77 18 -72 27 7 11 10 10 45 -8z m504 -22 c-3 -3 -16 5 -28 17 l-22 23 28 -17
c15 -10 25 -20 22 -23z m-254 11 c13 -17 13 -17 -6 -3 -11 8 -22 16 -24 17 -2
2 0 3 6 3 6 0 17 -8 24 -17z m199 12 c0 -2 -10 -9 -22 -15 -22 -11 -22 -10 -4
4 21 17 26 19 26 11z m-1730 -65 c-6 -4 -12 -11 -12 -16 -1 -14 -22 -44 -31
-44 -4 0 3 18 15 39 12 22 26 37 31 34 5 -3 4 -9 -3 -13z m1635 10 c-3 -5 -12
-10 -18 -10 -7 0 -6 4 3 10 19 12 23 12 15 0z m-1320 -20 c4 -6 -6 -10 -22
-10 -16 0 -34 -5 -41 -12 -9 -9 -12 -9 -12 3 0 9 3 19 7 22 10 11 61 8 68 -3z
m-398 -47 c-3 -10 -5 -4 -5 12 0 17 2 24 5 18 2 -7 2 -21 0 -30z m169 28 c-4
-5 0 -12 6 -14 7 -3 3 -6 -9 -6 -27 -1 -53 9 -53 20 0 5 14 9 31 9 16 0 28 -4
25 -9z m-66 -35 c0 -2 -7 -7 -16 -10 -8 -3 -12 -2 -9 4 6 10 25 14 25 6z"/>
<path d="M2242 4444 c10 -10 20 -15 24 -12 3 4 -5 12 -18 18 -22 12 -22 12 -6
-6z"/>
<path d="M2230 4423 c23 -16 50 -26 50 -18 0 4 -61 35 -69 35 -3 0 6 -8 19
-17z"/>
<path d="M2197 4414 c-11 -11 3 -24 18 -18 8 4 12 10 9 15 -6 11 -18 12 -27 3z"/>
<path d="M2200 4366 c0 -2 7 -9 15 -16 12 -10 15 -10 15 4 0 9 -7 16 -15 16
-8 0 -15 -2 -15 -4z"/>
<path d="M2750 3745 c0 -14 5 -25 10 -25 6 0 10 5 10 11 0 7 7 17 16 23 13 10
11 12 -10 14 -22 1 -26 -3 -26 -23z"/>
<path d="M2932 3613 c-27 -5 -52 -43 -24 -38 9 1 24 -1 32 -6 12 -6 16 -1 18
22 1 16 1 28 0 28 -2 -1 -13 -4 -26 -6z m18 -23 c0 -5 -4 -10 -10 -10 -5 0
-10 5 -10 10 0 6 5 10 10 10 6 0 10 -4 10 -10z"/>
<path d="M1430 2980 c0 -5 5 -10 11 -10 5 0 7 5 4 10 -3 6 -8 10 -11 10 -2 0
-4 -4 -4 -10z"/>
<path d="M1395 2960 c-3 -5 -1 -10 4 -10 6 0 11 5 11 10 0 6 -2 10 -4 10 -3 0
-8 -4 -11 -10z"/>
<path d="M1417 2945 c-4 -8 -2 -17 3 -20 6 -4 10 3 10 14 0 25 -6 27 -13 6z"/>
<path d="M2837 2946 c-3 -8 -2 -27 2 -43 8 -27 8 -26 12 15 4 41 -3 56 -14 28z"/>
<path d="M3606 4599 c-16 -10 -34 -25 -39 -34 -5 -10 -16 -14 -28 -10 -25 8
-24 -11 2 -25 24 -13 73 -5 89 15 6 8 10 27 8 43 l-3 29 -29 -18z"/>
<path d="M2186 4601 c-3 -5 1 -22 9 -37 8 -16 15 -22 15 -14 0 8 3 25 6 38 5
16 2 22 -9 22 -9 0 -18 -4 -21 -9z"/>
<path d="M1720 4591 c0 -6 5 -13 10 -16 6 -3 10 1 10 9 0 9 -4 16 -10 16 -5 0
-10 -4 -10 -9z"/>
<path d="M4110 4535 c0 -8 2 -15 4 -15 2 0 6 7 10 15 3 8 1 15 -4 15 -6 0 -10
-7 -10 -15z"/>
<path d="M1580 4530 c0 -5 5 -10 10 -10 6 0 10 5 10 10 0 6 -4 10 -10 10 -5 0
-10 -4 -10 -10z"/>
<path d="M1610 4532 c0 -5 7 -9 15 -9 8 0 15 4 15 9 0 4 -7 8 -15 8 -8 0 -15
-4 -15 -8z"/>
<path d="M2443 4509 c-18 -5 -33 -12 -33 -14 0 -3 33 -5 73 -5 44 0 66 4 57 9
-27 15 -65 19 -97 10z"/>
<path d="M3297 4493 c22 -16 45 -16 67 0 15 11 10 12 -34 12 -43 0 -48 -2 -33
-12z"/>
<path d="M1587 4489 c7 -7 15 -10 18 -7 3 3 -2 9 -12 12 -14 6 -15 5 -6 -5z"/>
<path d="M3586 4485 c-10 -7 -16 -17 -15 -22 2 -4 14 2 26 15 25 24 18 29 -11
7z"/>
<path d="M1691 4437 c-15 -28 -7 -78 16 -94 22 -17 78 -17 90 0 6 6 13 20 16
30 5 13 1 17 -21 17 -19 0 -23 -3 -13 -9 8 -5 11 -16 8 -26 -9 -22 -57 -16
-71 10 -6 11 -15 23 -20 27 -6 4 -4 13 3 22 8 9 10 16 6 16 -4 0 -2 7 5 15 7
8 8 15 3 15 -5 0 -15 -10 -22 -23z"/>
<path d="M2396 4425 c-18 -13 -18 -14 3 -12 11 1 21 7 21 14 0 16 0 16 -24 -2z"/>
<path d="M3572 4410 c0 -19 2 -27 5 -17 2 9 2 25 0 35 -3 9 -5 1 -5 -18z"/>
<path d="M2480 4419 c0 -5 5 -7 10 -4 6 3 10 1 10 -5 0 -6 5 -8 10 -5 17 10
11 25 -10 25 -11 0 -20 -5 -20 -11z"/>
<path d="M2535 4420 c-3 -6 1 -7 9 -4 18 7 21 14 7 14 -6 0 -13 -4 -16 -10z"/>
<path d="M3574 4341 c1 -8 29 -29 63 -48 47 -26 63 -31 69 -21 4 7 4 10 -1 6
-9 -9 -122 49 -128 66 -2 6 -3 5 -3 -3z"/>
<path d="M3067 4323 c-3 -5 5 -8 18 -8 13 0 21 3 18 8 -2 4 -10 7 -18 7 -8 0
-16 -3 -18 -7z"/>
<path d="M2315 4294 c-22 -14 -46 -27 -52 -30 -9 -4 -13 -29 -13 -73 0 -62 2
-69 24 -79 22 -10 24 -8 30 31 9 53 21 67 61 67 31 0 35 -4 50 -49 13 -40 19
-48 35 -44 17 5 20 14 20 73 l0 67 -57 30 -58 31 -40 -24z m-25 -49 c0 -8 -4
-15 -10 -15 -5 0 -10 7 -10 15 0 8 5 15 10 15 6 0 10 -7 10 -15z m84 -1 c3 -8
2 -12 -4 -9 -6 3 -10 10 -10 16 0 14 7 11 14 -7z m41 8 c-2 -3 0 -14 6 -25 8
-14 8 -18 0 -13 -6 4 -15 15 -20 25 -7 13 -6 18 5 18 7 0 12 -2 9 -5z m22 -14
c-3 -8 -6 -5 -6 6 -1 11 2 17 5 13 3 -3 4 -12 1 -19z m-87 2 c0 -6 -11 -10
-25 -10 -14 0 -25 4 -25 8 0 4 11 9 25 10 14 1 25 -3 25 -8z"/>
<path d="M2785 4285 c-45 -27 -56 -49 -46 -95 l6 -32 14 26 c8 14 32 34 53 43
21 9 38 21 38 26 0 4 -4 5 -10 2 -5 -3 -10 1 -10 10 0 11 8 15 30 13 30 -2 44
-28 15 -28 -8 0 -15 -4 -15 -10 0 -5 6 -10 14 -10 8 0 28 -12 45 -26 l31 -26
0 41 c0 39 -2 42 -50 66 -59 30 -64 30 -115 0z m35 -20 c0 -8 -4 -15 -9 -15
-13 0 -22 16 -14 24 11 11 23 6 23 -9z"/>
<path d="M2530 4270 c0 -5 5 -10 10 -10 6 0 10 5 10 10 0 6 -4 10 -10 10 -5 0
-10 -4 -10 -10z"/>
<path d="M2568 4230 c2 -8 7 -25 9 -37 4 -16 13 -23 29 -23 31 0 32 27 2 33
-20 4 -19 4 5 6 39 2 33 21 -7 21 -19 0 -36 3 -39 8 -2 4 -2 0 1 -8z"/>
<path d="M2520 4145 c0 -17 -2 -18 -10 -5 -8 13 -10 12 -10 -2 0 -20 25 -24
36 -7 3 6 1 16 -5 22 -8 8 -11 6 -11 -8z"/>
<path d="M2561 4147 c-6 -6 -11 -15 -11 -19 0 -13 38 -9 43 5 4 9 8 9 14 1 14
-21 95 -22 91 -1 -5 20 -19 25 -47 17 -14 -4 -38 -3 -52 1 -16 4 -31 3 -38 -4z"/>
<path d="M2678 4100 c-20 -11 -39 -24 -43 -29 -3 -6 15 2 40 15 25 14 45 28
45 30 0 6 -1 5 -42 -16z"/>
<path d="M2302 4074 c10 -10 20 -16 22 -13 3 3 -5 11 -17 18 -21 13 -21 12 -5
-5z"/>
<path d="M2540 4080 c0 -5 5 -10 11 -10 5 0 7 5 4 10 -3 6 -8 10 -11 10 -2 0
-4 -4 -4 -10z"/>
<path d="M2884 4074 c-18 -14 -18 -15 4 -4 12 6 22 13 22 15 0 8 -5 6 -26 -11z"/>
<path d="M2161 4046 c-11 -15 -7 -124 5 -136 20 -20 69 -28 104 -16 34 11 35
13 41 71 8 84 3 89 -76 90 -36 1 -69 -4 -74 -9z m79 -6 c0 -5 -5 -10 -11 -10
-5 0 -7 5 -4 10 3 6 8 10 11 10 2 0 4 -4 4 -10z m65 -9 c3 -5 2 -12 -3 -15 -5
-3 -9 1 -9 9 0 17 3 19 12 6z m-48 -23 c-3 -8 -6 -5 -6 6 -1 11 2 17 5 13 3
-3 4 -12 1 -19z m-29 -41 c-31 -12 -36 -25 -13 -33 8 -4 15 -13 15 -21 0 -12
-7 -14 -27 -8 -33 8 -31 6 -33 25 -6 44 -1 50 43 49 41 -1 41 -1 15 -12z m72
-21 c0 -22 -6 -36 -16 -40 -33 -13 -44 -6 -44 25 0 18 4 28 10 24 6 -3 13 1
16 9 11 30 34 18 34 -18z"/>
<path d="M2348 3985 l3 -73 -56 -32 c-30 -17 -63 -29 -71 -26 -8 3 -12 2 -9
-4 11 -18 -10 -11 -57 19 -37 24 -49 27 -57 17 -6 -7 -29 -21 -51 -31 l-40
-18 0 -63 c0 -61 1 -64 32 -80 18 -9 38 -23 46 -30 17 -18 37 -18 54 0 8 7 28
21 46 30 18 9 32 23 32 31 0 19 -30 8 -48 -17 -18 -25 -83 -24 -107 2 -10 11
-24 20 -32 20 -14 0 -13 12 4 58 3 6 0 12 -6 12 -6 0 -11 7 -11 15 0 8 9 15
20 15 11 0 28 5 39 11 20 13 91 4 91 -11 0 -6 8 -10 19 -10 14 0 17 -6 14 -24
-3 -13 0 -27 6 -30 7 -5 11 6 11 31 0 34 4 40 32 51 37 14 49 9 19 -8 -17 -8
-21 -20 -21 -57 l0 -46 20 26 c11 14 20 35 20 47 0 19 4 20 38 15 35 -5 35 -4
10 6 -16 6 -28 14 -28 19 0 10 38 16 68 12 23 -4 32 -32 10 -32 -9 0 -8 -3 2
-10 9 -6 17 -5 22 3 6 9 8 8 8 -3 0 -8 11 -33 25 -55 l25 -40 -2 53 c-3 53 -3
54 -56 83 -51 28 -54 28 -83 13 -43 -22 -47 -11 -5 14 33 20 34 22 38 91 2 41
-1 72 -7 75 -6 2 -9 -24 -7 -69z"/>
<path d="M2950 4026 c0 -14 -4 -27 -10 -31 -5 -3 -6 -15 -1 -28 7 -20 16 -23
50 -18 5 0 12 11 14 24 3 16 5 13 6 -10 1 -35 4 -37 36 -23 15 6 16 9 4 9 -18
1 -39 41 -39 76 0 21 -5 25 -30 25 -25 0 -30 -4 -30 -24z m47 -8 c-3 -8 -6 -5
-6 6 -1 11 2 17 5 13 3 -3 4 -12 1 -19z"/>
<path d="M2713 4033 c-9 -3 -10 -10 -4 -21 5 -9 9 -21 10 -27 1 -11 21 -14 21
-2 0 4 0 18 0 32 0 25 -4 28 -27 18z"/>
<path d="M3415 4021 c-107 -21 -335 -77 -335 -83 0 -3 8 -4 18 -2 9 2 58 13
107 24 50 11 98 23 108 26 14 4 17 -1 17 -35 0 -38 3 -42 58 -74 l57 -33 0
-74 0 -74 -55 -31 -55 -31 -5 -74 c-4 -53 -9 -75 -20 -78 -12 -4 -13 -2 -2 9
7 7 12 38 12 70 0 63 -14 82 -81 109 -28 12 -36 11 -85 -13 l-54 -27 0 -68 c0
-63 2 -70 24 -80 21 -9 25 -7 35 15 9 19 17 24 33 20 15 -4 18 -3 10 5 -6 6
-8 18 -4 27 5 13 3 14 -10 3 -8 -7 -24 -9 -33 -5 -16 6 -15 7 6 16 38 15 49
16 49 3 0 -6 10 -13 22 -13 13 -1 24 -7 26 -12 2 -5 10 -7 19 -4 11 4 14 1 11
-13 -3 -14 -11 -18 -33 -17 -28 2 -29 1 -11 -12 11 -8 28 -15 39 -15 11 0 15
-5 11 -11 -4 -8 0 -8 15 0 18 10 30 7 74 -17 l52 -29 0 -74 c0 -60 3 -75 15
-75 12 0 14 13 12 71 l-3 71 58 31 c55 30 59 31 88 16 54 -28 75 -58 75 -108
0 -43 -1 -45 -20 -35 -24 13 -56 5 -64 -15 -3 -8 -1 -15 3 -15 5 0 11 7 15 15
8 21 30 19 51 -5 10 -11 22 -20 27 -20 4 0 8 30 8 68 0 59 3 69 23 81 21 13
21 13 5 -5 -11 -13 -17 -40 -19 -88 -3 -79 4 -88 101 -126 45 -18 74 -22 164
-21 87 0 118 -3 152 -19 65 -28 70 -86 10 -125 -30 -20 -45 -13 -79 37 -28 39
-30 40 -70 33 -23 -4 -70 -9 -105 -10 -52 -1 -68 -6 -99 -31 -74 -60 -72 -94
5 -94 89 0 103 -35 32 -82 -39 -26 -95 -124 -85 -150 9 -24 35 -30 59 -15 12
7 41 19 65 26 36 10 45 10 52 -1 11 -18 -1 -27 -57 -41 -65 -16 -69 -38 -11
-66 55 -27 125 -27 220 -1 84 23 107 45 107 101 0 64 36 50 59 -23 18 -55 54
-60 86 -12 22 34 91 82 135 94 21 6 50 20 65 32 l28 22 -22 17 c-27 22 -27 33
4 53 26 17 75 103 75 133 0 9 16 34 36 54 l36 37 -25 22 c-21 18 -24 26 -14
40 8 14 8 22 -2 34 -12 14 -17 13 -49 -9 l-36 -24 -58 31 -58 31 0 53 0 53 56
17 c30 8 62 13 70 10 8 -3 14 1 14 9 0 8 5 15 10 15 17 0 32 -52 28 -103 -2
-26 0 -47 5 -47 11 0 8 93 -4 129 -12 35 -33 40 -77 17 -15 -8 -51 -21 -79
-29 l-53 -16 -36 35 c-45 42 -86 44 -162 9 -100 -46 -128 -29 -169 105 -27 89
-37 103 -132 173 -24 17 -51 43 -60 56 l-16 24 59 -7 c51 -6 58 -4 52 10 -3 8
-6 22 -6 29 0 8 -27 28 -60 47 -33 18 -60 36 -60 40 0 5 32 8 72 8 39 0 69 2
67 4 -2 2 -51 7 -109 10 -131 9 -141 11 -215 52 -66 36 -140 48 -210 35z m50
-23 c4 -4 3 -22 -1 -40 l-8 -33 -7 35 -6 35 -2 -35 c-2 -19 -5 -29 -8 -22 -2
6 -9 10 -14 6 -13 -8 -11 10 4 25 10 11 9 12 -1 6 -7 -4 -17 -17 -22 -29 -8
-18 -9 -16 -11 14 l-2 35 -7 -35 c-4 -21 -8 -27 -9 -15 l-2 20 -9 -20 c-7 -16
-9 -13 -9 17 -1 34 1 37 32 40 47 5 75 3 82 -4z m90 -14 c1 -11 -2 -29 -6 -40
-7 -17 -8 -17 -8 -1 -1 9 -6 17 -12 17 -6 0 -8 -8 -5 -17 6 -17 5 -17 -8 0
-16 21 -30 22 -22 2 3 -8 1 -15 -4 -15 -6 0 -10 17 -10 38 0 37 1 38 37 37 29
0 37 -4 38 -21z m-13 -150 c-41 -28 -23 -84 28 -84 29 0 45 9 53 30 4 12 6 12
6 -2 1 -20 -28 -38 -60 -38 -30 0 -59 28 -59 56 0 24 24 54 43 54 6 0 1 -7
-11 -16z m88 -21 c0 -9 -1 -14 -3 -12 -1 2 -11 15 -22 28 l-20 24 23 -12 c12
-6 22 -19 22 -28z m120 13 c0 -2 -7 -7 -16 -10 -8 -3 -12 -2 -9 4 6 10 25 14
25 6z m-146 -25 c3 -4 -4 -17 -16 -27 -13 -12 -18 -13 -12 -4 5 8 9 18 10 23
3 15 4 17 8 17 3 0 7 -4 10 -9z m212 -45 c3 -24 0 -36 -11 -40 -21 -8 -32 24
-14 38 8 6 13 20 11 31 -2 11 -1 17 3 13 4 -4 9 -23 11 -42z m-53 -20 c3 -8
-1 -20 -10 -27 -13 -11 -17 -10 -29 5 -7 11 -11 23 -8 27 8 14 41 10 47 -5z
m112 -34 c-6 -7 -35 18 -35 31 0 5 9 2 20 -8 11 -10 18 -20 15 -23z m-260 8
c3 -5 1 -10 -4 -10 -6 0 -11 5 -11 10 0 6 2 10 4 10 3 0 8 -4 11 -10z m-129
-43 c84 -36 100 -67 69 -128 -9 -16 -13 -33 -11 -38 3 -5 -37 -9 -88 -9 -85
-1 -94 1 -99 18 -6 24 7 34 30 22 10 -4 34 -5 53 -1 19 3 30 7 24 8 -7 0 -15
13 -19 28 l-7 28 -19 -25 -19 -25 -19 24 -18 24 -11 -29 c-6 -16 -11 -23 -11
-16 -1 18 18 52 29 52 5 0 12 -9 15 -20 9 -27 19 -25 33 5 10 23 9 25 -11 25
-23 0 -55 16 -47 23 14 13 77 47 86 47 7 0 25 -6 40 -13z m-306 -37 c-13 -8
-13 -10 1 -10 9 0 23 -8 30 -17 11 -15 11 -16 -1 -6 -11 10 -17 10 -29 0 -11
-9 -13 -9 -8 0 4 6 3 14 -3 18 -13 8 -3 25 13 25 7 0 6 -4 -3 -10z m66 -15
c-3 -23 -12 -26 -13 -5 -1 11 2 20 7 20 4 0 7 -7 6 -15z m731 -17 c-3 -8 -6
-5 -6 6 -1 11 2 17 5 13 3 -3 4 -12 1 -19z m11 -27 c13 -1 21 -5 17 -11 -3 -5
-21 -8 -40 -6 -19 1 -35 -2 -35 -7 0 -5 -7 -4 -15 3 -12 10 -15 10 -15 0 0 -9
-3 -10 -13 -1 -8 6 -18 7 -23 3 -4 -4 -3 0 4 9 8 10 25 15 54 13 24 -2 53 -3
66 -3z m-279 -17 c3 -4 -4 -4 -16 -1 -13 3 -25 1 -28 -4 -3 -4 -16 -4 -29 1
-13 5 -27 6 -30 3 -3 -4 -6 -1 -6 5 0 12 97 8 109 -4z m71 7 c0 -4 -14 -8 -31
-9 -17 -1 -28 1 -26 5 6 10 57 13 57 4z m-620 -38 c0 -14 -19 -38 -25 -32 -8
8 5 39 16 39 5 0 9 -3 9 -7z m659 -47 c-2 -2 -15 -9 -29 -15 -24 -11 -24 -11
-6 3 16 13 49 24 35 12z m36 -16 c3 -6 -1 -7 -9 -4 -18 7 -21 14 -7 14 6 0 13
-4 16 -10z m-80 -40 c-12 -20 8 -40 39 -39 21 1 25 3 11 6 -28 7 -46 23 -38
36 4 6 10 5 17 -5 6 -8 21 -18 32 -22 24 -7 36 -37 23 -57 -4 -7 -3 -21 2 -31
13 -24 -19 -25 -37 0 -13 16 -13 16 -14 0 0 -10 -7 -18 -15 -18 -10 0 -15 10
-15 33 0 17 -7 54 -15 81 -13 42 -13 47 0 36 8 -7 13 -16 10 -20z m155 -68 l0
-67 65 -34 c36 -18 65 -38 65 -43 0 -6 -11 -3 -24 6 -51 33 -92 52 -114 53
-12 1 -20 -2 -17 -7 3 -4 -2 -10 -10 -14 -8 -3 -17 -1 -20 4 -4 6 -26 10 -51
10 -24 0 -44 3 -44 8 0 6 63 8 85 1 6 -2 20 0 33 5 20 7 22 14 22 73 0 51 -4
69 -17 80 -16 13 -16 13 5 3 20 -9 22 -18 22 -78z m262 -11 c2 -52 0 -67 -9
-64 -15 6 -18 133 -4 133 5 0 11 -31 13 -69z m-302 -6 c-7 -8 -18 -15 -24 -15
-6 0 -3 5 7 11 9 5 18 20 18 32 1 18 2 18 6 4 3 -10 -1 -24 -7 -32z m-123 3
c-3 -8 -6 -5 -6 6 -1 11 2 17 5 13 3 -3 4 -12 1 -19z m309 -42 c-3 -11 -5 -25
-5 -29 -1 -5 -11 -7 -23 -5 -26 3 -38 46 -18 58 22 14 50 -1 46 -24z m344 -16
c0 -5 -5 -10 -11 -10 -5 0 -7 5 -4 10 3 6 8 10 11 10 2 0 4 -4 4 -10z m-647
-19 c3 -13 1 -18 -9 -14 -7 2 -10 11 -7 19 7 19 10 18 16 -5z m542 -31 c3 6
11 10 18 10 6 0 2 -7 -10 -15 -19 -13 -25 -12 -67 11 -61 34 -59 41 3 9 30
-15 52 -21 56 -15z m75 35 c0 -2 -10 -9 -22 -15 -22 -11 -22 -10 -4 4 21 17
26 19 26 11z m-422 -62 c-10 -2 -28 -2 -40 0 -13 2 -5 4 17 4 22 1 32 -1 23
-4z m552 -12 c0 -5 -14 -20 -31 -33 -17 -13 -49 -40 -72 -60 -40 -38 -71 -52
-46 -22 12 15 11 16 -8 10 -29 -9 -42 13 -18 31 18 12 17 13 -5 13 l-24 0 22
16 c12 8 28 14 35 11 6 -2 35 7 62 20 52 24 85 29 85 14z m130 -43 c0 -4 -13
-15 -30 -25 -16 -9 -30 -21 -30 -26 0 -4 -5 -5 -12 -1 -7 5 -5 11 7 21 18 12
18 13 1 13 -15 0 -16 3 -6 15 12 15 70 18 70 3z m-746 -73 c-7 -17 -20 -20
-28 -6 -7 10 3 21 20 21 8 0 11 -6 8 -15z m46 -1 c0 -17 -22 -14 -28 4 -2 7 3
12 12 12 9 0 16 -7 16 -16z m100 -8 c0 -2 -7 -7 -16 -10 -8 -3 -12 -2 -9 4 6
10 25 14 25 6z m530 -22 c0 -2 -9 0 -20 6 -11 6 -20 13 -20 16 0 2 9 0 20 -6
11 -6 20 -13 20 -16z m-218 -18 c31 -18 60 -30 65 -25 4 4 7 -24 5 -64 -3 -70
-2 -73 25 -89 15 -10 24 -17 18 -18 -5 0 -21 9 -34 19 -23 18 -24 18 -79 -15
-31 -19 -58 -34 -61 -34 -3 0 -30 14 -58 30 l-53 30 0 69 0 69 53 31 c28 17
55 31 58 31 3 0 30 -15 61 -34z m168 29 c0 -2 -18 -14 -40 -25 -22 -11 -40
-18 -40 -15 0 2 17 13 38 24 42 23 42 23 42 16z m-457 -127 c4 -12 2 -27 -3
-33 -6 -7 -7 -14 -4 -17 2 -3 -1 -8 -8 -11 -10 -3 -14 8 -15 39 -2 48 20 63
30 22z m-193 -40 c0 -4 -15 -8 -32 -7 -26 0 -29 2 -13 8 25 10 45 10 45 -1z
m631 -23 c0 -6 -10 -12 -23 -13 -19 -4 -20 -2 -9 12 15 17 33 18 32 1z m-455
-142 l1 -68 -6 64 -6 65 -54 32 -55 31 -50 -30 c-28 -16 -57 -37 -63 -45 -11
-13 -13 -13 -13 -1 0 8 28 30 63 51 l62 36 60 -34 60 -33 1 -68z m181 92 c50
-29 53 -32 53 -71 0 -68 -39 -67 -56 1 -9 41 -22 55 -50 55 -22 0 -24 -4 -24
-43 0 -47 -15 -68 -63 -86 l-27 -11 0 64 0 63 46 23 c25 13 48 28 50 32 7 10
4 12 71 -27z m183 -5 c-20 -13 -33 -13 -25 0 3 6 14 10 23 10 15 0 15 -2 2
-10z m-454 -53 c-3 -12 -1 -26 5 -33 7 -9 5 -22 -6 -43 -14 -28 -20 -31 -61
-31 -31 0 -46 5 -50 15 -8 19 15 48 32 41 7 -3 27 8 45 25 17 16 26 29 20 29
-6 0 -11 7 -11 15 0 9 6 12 16 8 10 -4 14 -13 10 -26z m59 -97 c-3 -4 -13 -10
-24 -13 -17 -4 -18 -2 -9 26 10 28 12 29 24 12 7 -10 11 -21 9 -25z"/>
<path d="M3525 3980 c3 -5 8 -10 11 -10 2 0 4 5 4 10 0 6 -5 10 -11 10 -5 0
-7 -4 -4 -10z"/>
<path d="M3491 3553 c-8 -16 -8 -22 3 -26 24 -9 37 7 22 28 -13 18 -14 18 -25
-2z"/>
<path d="M3465 3510 c3 -5 8 -10 11 -10 2 0 4 5 4 10 0 6 -5 10 -11 10 -5 0
-7 -4 -4 -10z"/>
<path d="M3810 3350 c0 -5 5 -10 10 -10 6 0 10 5 10 10 0 6 -4 10 -10 10 -5 0
-10 -4 -10 -10z"/>
<path d="M4410 3140 c-8 -5 -12 -12 -9 -15 4 -3 12 1 19 10 14 17 11 19 -10 5z"/>
<path d="M4288 2948 c-3 -18 -3 -39 -1 -45 8 -21 23 -15 23 9 l0 22 16 -22 c8
-12 22 -22 31 -22 12 0 13 3 5 13 -6 7 -10 26 -9 43 2 26 -1 29 -29 32 -29 3
-32 0 -36 -30z m42 8 c0 -3 -4 -8 -10 -11 -5 -3 -10 -1 -10 4 0 6 5 11 10 11
6 0 10 -2 10 -4z"/>
<path d="M2593 3945 c0 -22 2 -30 4 -17 2 12 2 30 0 40 -3 9 -5 -1 -4 -23z"/>
<path d="M2706 3951 c-4 -5 3 -7 14 -4 23 6 26 13 6 13 -8 0 -17 -4 -20 -9z"/>
<path d="M2720 3888 c0 -17 2 -18 15 -8 8 7 15 14 15 15 0 2 -7 5 -15 9 -10 4
-15 -1 -15 -16z"/>
<path d="M2690 3889 c0 -5 5 -7 10 -4 6 3 10 8 10 11 0 2 -4 4 -10 4 -5 0 -10
-5 -10 -11z"/>
<path d="M3970 3790 c-13 -8 -12 -10 3 -10 9 0 17 5 17 10 0 12 -1 12 -20 0z"/>
<path d="M2325 3770 c-3 -5 -1 -10 4 -10 6 0 11 5 11 10 0 6 -2 10 -4 10 -3 0
-8 -4 -11 -10z"/>
<path d="M2377 3766 c-4 -10 -1 -13 8 -9 8 3 12 9 9 14 -7 12 -11 11 -17 -5z"/>
<path d="M2183 3658 l-53 -30 0 -67 c0 -61 2 -69 23 -78 18 -9 24 -8 24 2 0 8
-4 13 -8 12 -4 -1 -7 3 -7 8 0 6 4 9 9 8 5 -2 9 2 9 7 0 6 -6 10 -12 10 -7 0
-14 12 -14 26 -2 24 0 25 31 20 21 -4 35 -2 37 5 2 7 18 3 46 -11 46 -24 62
-42 44 -48 -14 -4 -16 -42 -3 -42 34 0 41 13 41 79 l0 66 -57 32 -58 31 -52
-30z m32 -58 c-5 -8 -11 -8 -17 -2 -6 6 -7 16 -3 22 5 8 11 8 17 2 6 -6 7 -16
3 -22z m35 10 c0 -5 -4 -10 -10 -10 -5 0 -10 5 -10 10 0 6 5 10 10 10 6 0 10
-4 10 -10z m50 0 c6 9 10 10 10 3 0 -6 -5 -15 -10 -18 -16 -10 -42 3 -34 16 4
8 9 7 15 -2 8 -12 11 -11 19 1z"/>
<path d="M2710 3605 c0 -8 2 -15 4 -15 2 0 6 7 10 15 3 8 1 15 -4 15 -6 0 -10
-7 -10 -15z"/>
<path d="M2190 3550 c0 -5 5 -10 10 -10 6 0 10 5 10 10 0 6 -4 10 -10 10 -5 0
-10 -4 -10 -10z"/>
<path d="M2007 3543 c-4 -3 -7 -13 -7 -22 1 -13 3 -13 11 2 11 19 8 33 -4 20z"/>
<path d="M1940 3481 c0 -7 23 -11 57 -11 68 0 66 8 -5 16 -34 3 -52 2 -52 -5z"/>
<path d="M2060 3446 c-48 -28 -55 -37 -58 -67 l-3 -34 21 23 c14 15 28 21 39
17 9 -4 24 -10 33 -12 10 -3 15 -10 11 -16 -4 -6 -1 -7 7 -2 12 8 61 11 75 5
3 -2 9 -3 14 -4 22 -3 23 -17 3 -23 -18 -4 -21 -10 -15 -32 8 -34 11 -37 25
-23 16 16 23 119 9 136 -7 8 -33 26 -59 39 l-48 25 -54 -32z"/>
<path d="M2298 3443 l-48 -26 0 -68 c0 -63 7 -79 36 -79 11 0 2 39 -11 50 -19
16 -19 44 0 60 12 10 19 10 37 -1 13 -8 43 -14 68 -14 28 0 50 -6 58 -15 10
-11 12 -11 6 -1 -5 9 -3 12 5 7 14 -9 5 -26 -14 -26 -10 0 -11 -7 -6 -27 4
-16 10 -27 14 -25 4 1 12 2 17 2 6 0 10 29 10 68 l0 69 -49 26 c-60 33 -64 33
-123 0z"/>
<path d="M3260 3450 c-9 -6 -10 -10 -3 -10 6 0 15 5 18 10 8 12 4 12 -15 0z"/>
<path d="M3422 3395 c0 -16 2 -22 5 -12 2 9 2 23 0 30 -3 6 -5 -1 -5 -18z"/>
<path d="M3550 3410 c0 -5 5 -10 10 -10 6 0 10 5 10 10 0 6 -4 10 -10 10 -5 0
-10 -4 -10 -10z"/>
<path d="M3316 3382 c-6 -36 -4 -62 5 -62 20 0 39 14 39 29 1 14 2 14 11 -1
15 -26 24 -22 24 11 0 35 -1 36 -42 44 -28 6 -32 4 -37 -21z m64 -2 c0 -5 -4
-10 -10 -10 -5 0 -10 5 -10 10 0 6 5 10 10 10 6 0 10 -4 10 -10z"/>
<path d="M3620 3401 c0 -6 5 -13 10 -16 6 -3 10 1 10 9 0 9 -4 16 -10 16 -5 0
-10 -4 -10 -9z"/>
<path d="M4525 3373 c2 -10 4 -28 4 -40 1 -13 7 -23 16 -23 11 0 15 11 15 40
0 33 -3 40 -19 40 -13 0 -18 -6 -16 -17z"/>
<path d="M3580 3370 c0 -5 5 -10 10 -10 6 0 10 5 10 10 0 6 -4 10 -10 10 -5 0
-10 -4 -10 -10z"/>
<path d="M2012 3308 c2 -22 9 -34 21 -36 24 -5 22 23 -4 49 l-20 20 3 -33z"/>
<path d="M3601 3265 c-2 -38 -20 -46 -60 -26 -20 10 -42 16 -50 13 -8 -2 -11
0 -8 5 9 15 -35 9 -70 -10 -37 -20 -47 -21 -37 -5 4 7 3 8 -5 4 -6 -4 -9 -12
-6 -17 4 -5 -1 -12 -9 -15 -12 -5 -16 -22 -16 -74 l0 -68 55 -30 55 -30 48 25
c63 35 72 48 72 110 0 51 -2 55 -35 74 -48 29 -44 34 6 9 l41 -21 -4 -74 -3
-74 33 -15 c36 -18 38 -24 17 -52 -8 -10 -15 -27 -15 -36 0 -12 -8 -18 -22
-19 -13 0 -32 -4 -43 -9 -14 -6 -7 -7 21 -3 38 5 43 3 50 -18 4 -13 7 -27 6
-31 -1 -5 2 -8 7 -8 5 0 12 -7 15 -16 5 -13 -2 -15 -52 -10 l-57 5 54 -10 c69
-14 79 -4 52 49 -12 23 -21 50 -21 61 0 12 23 46 50 76 68 75 68 102 1 164
-28 26 -54 57 -60 71 -9 22 -10 22 -10 5z m-206 -135 c-3 -6 1 -7 9 -4 11 4
16 0 16 -15 0 -17 -4 -19 -22 -12 -27 10 -37 41 -13 41 9 0 13 -4 10 -10z
m305 -50 c-11 -21 -30 -27 -30 -10 0 6 5 10 11 10 5 0 7 5 4 10 -3 6 1 10 10
10 13 0 14 -4 5 -20z"/>
<path d="M1812 2925 c0 -16 2 -22 5 -12 2 9 2 23 0 30 -3 6 -5 -1 -5 -18z"/>
<path d="M1761 2918 c1 -17 2 -19 6 -5 2 9 8 17 13 17 5 0 11 -8 13 -17 4 -14
5 -12 6 5 1 16 -5 22 -19 22 -14 0 -20 -6 -19 -22z"/>
<path d="M3109 2611 c-93 -19 -143 -80 -136 -166 4 -42 10 -54 40 -80 20 -17
72 -44 117 -59 44 -16 91 -37 105 -48 66 -52 -7 -168 -105 -168 -42 0 -98 27
-117 56 l-15 24 -24 -36 c-13 -19 -22 -39 -19 -44 12 -19 118 -50 174 -50 127
0 209 50 232 143 25 101 -15 152 -153 197 -126 40 -172 93 -131 148 42 57 139
60 183 5 11 -14 22 -24 23 -22 2 2 11 17 21 33 18 28 18 30 1 42 -19 14 -104
35 -138 33 -12 -1 -38 -4 -58 -8z"/>
<path d="M1921 2538 c4 -40 8 -134 9 -208 1 -152 13 -195 68 -242 40 -33 128
-52 200 -44 110 13 173 72 191 176 6 30 11 130 13 223 l4 167 -32 0 -33 0 -3
-202 c-3 -183 -5 -206 -24 -238 -33 -57 -79 -83 -142 -78 -60 5 -97 28 -127
79 -18 31 -20 52 -20 237 l0 202 -55 0 -56 0 7 -72z"/>
<path d="M2453 2407 c-1 -111 -4 -236 -8 -278 l-6 -77 32 3 32 2 -2 198 c-1
108 1 196 6 194 12 -5 209 -215 297 -316 49 -58 78 -83 94 -83 l22 0 0 198 c0
110 3 233 6 275 l7 77 -31 0 -32 0 -2 -192 -3 -192 -184 197 c-128 138 -189
197 -205 197 -21 0 -21 -3 -23 -203z"/>
<path d="M3404 2602 l-52 -3 34 -90 c19 -50 54 -166 79 -257 25 -92 50 -174
54 -182 9 -17 58 -21 70 -5 5 5 37 96 71 200 35 105 64 192 66 194 8 9 14 -8
69 -189 30 -102 59 -192 64 -200 4 -8 22 -15 39 -16 32 -2 32 -1 62 95 16 53
56 176 89 274 l60 177 -32 0 -32 0 -60 -210 c-33 -115 -62 -206 -66 -202 -4 4
-35 98 -70 210 l-63 203 -34 -3 -34 -3 -66 -208 c-36 -114 -69 -204 -73 -200
-6 8 -92 318 -104 380 -8 39 -7 39 -71 35z"/>
<path d="M2870 1830 l0 -100 -72 0 c-91 0 -141 -22 -191 -81 -61 -70 -84 -193
-56 -294 14 -50 68 -102 115 -111 48 -9 117 19 165 67 l39 39 0 -45 0 -45 40
0 40 0 0 335 0 335 -40 0 -40 0 0 -100z m-8 -176 c4 -3 8 -50 8 -104 0 -96 -1
-100 -33 -142 -68 -89 -136 -111 -180 -59 -73 87 -19 278 87 311 29 9 99 5
118 -6z"/>
<path d="M3590 1586 l0 -326 40 0 40 0 0 135 0 135 44 0 44 0 83 -135 83 -135
53 0 52 0 -90 144 c-49 79 -89 147 -89 152 0 5 16 20 35 33 73 50 107 179 65
248 -33 55 -68 67 -222 71 l-138 4 0 -326z m271 216 c45 -50 33 -122 -30 -175
-28 -23 -42 -27 -97 -27 l-64 0 0 121 0 121 81 -4 c77 -3 82 -5 110 -36z"/>
<path d="M1687 1726 c-100 -36 -157 -122 -157 -237 0 -102 35 -168 114 -214
53 -31 141 -40 216 -23 54 13 55 14 58 51 2 20 1 37 -2 37 -3 0 -34 -7 -70
-15 -86 -20 -139 -9 -183 39 -78 84 -63 230 29 286 39 24 114 26 173 5 55 -20
57 -20 53 22 -3 37 -5 38 -53 50 -68 15 -132 15 -178 -1z"/>
<path d="M2156 1725 c-47 -17 -91 -57 -119 -110 -31 -58 -31 -193 0 -251 67
-125 219 -161 329 -78 112 84 112 324 0 408 -58 44 -140 56 -210 31z m159 -88
c70 -70 73 -214 7 -289 -21 -22 -39 -31 -73 -35 -96 -11 -149 52 -149 177 0
120 45 179 139 180 36 0 49 -6 76 -33z"/>
<path d="M3200 1720 c-59 -28 -77 -46 -106 -102 -64 -126 -22 -292 88 -350 54
-28 150 -30 226 -4 49 17 52 19 52 52 0 19 -1 34 -3 34 -1 0 -28 -9 -60 -20
-132 -47 -229 -3 -244 110 l-6 40 163 0 163 0 -6 60 c-7 77 -39 143 -83 170
-50 32 -129 36 -184 10z m145 -73 c18 -15 28 -36 32 -65 l6 -42 -117 0 -116 0
15 38 c35 86 122 120 180 69z"/>
<path d="M4235 1731 c-75 -19 -108 -58 -108 -127 0 -62 33 -94 147 -139 50
-20 101 -43 114 -51 31 -20 28 -57 -5 -84 -25 -20 -37 -22 -104 -17 -49 3 -90
12 -117 26 -23 12 -44 21 -47 21 -3 0 -5 -19 -3 -42 3 -40 5 -43 48 -56 67
-21 217 -21 257 1 51 27 73 63 73 120 0 43 -4 54 -33 81 -20 18 -70 45 -123
65 -101 38 -124 54 -124 87 0 38 50 58 129 51 36 -4 78 -9 94 -13 25 -6 27 -4
27 29 0 27 -5 36 -22 41 -39 11 -172 16 -203 7z"/>
</g>
</svg>
